<?xml version="1.0" standalone="no"?>
<!DOCTYPE svg PUBLIC "-//W3C//DTD SVG 20010904//EN"
 "http://www.w3.org/TR/2001/REC-SVG-20010904/DTD/svg10.dtd">
<svg version="1.0" xmlns="http://www.w3.org/2000/svg"
 width="700.000000pt" height="700.000000pt" viewBox="0 0 700.000000 700.000000"
 preserveAspectRatio="xMidYMid meet">
<metadata>
Created by potrace 1.11, written by Peter Selinger 2001-2013
</metadata>
<g transform="translate(0.000000,700.000000) scale(0.100000,-0.100000)"
fill="#000000" stroke="none">
<path d="M0 3500 l0 -3500 3500 0 3500 0 0 3500 0 3500 -3500 0 -3500 0 0
-3500z m1120 279 c145 -242 267 -442 270 -444 4 -2 125 196 270 441 l265 444
137 0 138 0 0 -715 0 -715 -155 0 -155 0 -2 430 -3 430 -213 -355 -213 -355
-72 0 -72 0 -210 345 c-116 189 -213 345 -217 345 -5 0 -8 -189 -8 -420 l0
-420 -150 0 -150 0 0 715 0 715 138 0 137 -1 265 -440z m2394 426 c145 -27
258 -99 311 -196 40 -75 47 -197 16 -280 -24 -63 -83 -136 -138 -170 l-35 -22
61 -28 c80 -36 152 -110 182 -186 34 -89 32 -208 -5 -290 -48 -106 -139 -172
-294 -216 -72 -20 -105 -21 -549 -25 l-473 -3 0 715 0 716 424 0 c330 0 441
-3 500 -15z m1008 -567 l3 -583 368 -3 367 -2 0 -130 0 -130 -535 0 -535 0 0
715 0 715 165 0 165 0 2 -582z m1918 452 l0 -130 -237 -2 -238 -3 -3 -582 -2
-583 -165 0 -165 0 0 585 0 585 -235 0 -235 0 0 130 0 130 640 0 640 0 0 -130z"/>
<path d="M2900 3815 l0 -177 223 4 c213 3 224 4 272 28 73 36 98 79 93 157 -4
71 -24 99 -93 136 -37 20 -58 22 -267 25 l-228 4 0 -177z"/>
<path d="M2930 3235 l0 -176 263 3 c256 3 263 4 312 28 97 48 123 166 54 245
-53 60 -93 68 -376 73 l-253 4 0 -177z"/>
</g>
</svg>
