<svg xmlns="http://www.w3.org/2000/svg" width="195" height="45" viewBox="0 0 195 45">
    <g fill="none" fill-rule="evenodd">
        <path fill="#FFF" d="M183.812 11.411c3.125 0 5.73.87 7.553 2.731 1.953 1.738 2.864 4.469 2.864 7.944v13.778h-7.292v-12.66c0-1.863-.39-3.352-1.302-4.345-.911-.993-2.214-1.366-3.776-1.366-1.823 0-3.386.497-4.427 1.614-1.042 1.117-1.693 2.73-1.693 4.84v11.917h-7.292v-24.08h7.031v2.855c.912-.993 2.214-1.862 3.646-2.359 1.433-.62 2.995-.869 4.688-.869"/>
        <path fill="#FFF" fill-rule="nonzero" d="M150.399 30.296c1.799 0 3.341-.606 4.626-1.816 1.157-1.21 1.8-2.784 1.8-4.721 0-1.937-.643-3.51-1.8-4.721-1.156-1.21-2.699-1.816-4.626-1.816-1.8 0-3.342.605-4.627 1.816-1.156 1.21-1.799 2.784-1.799 4.72 0 1.938.643 3.511 1.8 4.722 1.156 1.21 2.698 1.816 4.626 1.816zm0 5.568c-2.699 0-5.012-.484-7.068-1.574-2.057-1.09-3.727-2.42-4.884-4.358-1.156-1.815-1.799-3.873-1.799-6.294 0-2.3.643-4.48 1.8-6.295 1.156-1.816 2.826-3.269 4.883-4.358 2.056-1.09 4.498-1.574 7.068-1.574 2.699 0 5.012.484 7.068 1.574s3.727 2.421 4.883 4.358c1.157 1.816 1.8 3.874 1.8 6.295 0 2.3-.643 4.479-1.8 6.294-1.156 1.816-2.827 3.269-4.883 4.358-2.185 1.09-4.498 1.574-7.068 1.574z"/>
        <path fill="#FFF" d="M123.757 12.226h7.735v23.638h-7.735z"/>
        <path fill="#FFF" fill-rule="nonzero" d="M102.463 28.863c1.919 0 3.454-.495 4.733-1.609 1.279-1.114 1.79-2.475 1.79-4.332 0-1.733-.639-3.218-1.79-4.332-1.28-1.114-2.814-1.609-4.733-1.609-1.919 0-3.454.495-4.733 1.61-1.279 1.113-1.79 2.475-1.79 4.331 0 1.733.639 3.218 1.79 4.332 1.151.99 2.814 1.61 4.733 1.61zm13.559-17.204V31.71c0 4.456-1.151 7.674-3.582 9.902-2.43 2.104-5.884 3.218-10.36 3.218-2.431 0-4.734-.248-6.908-.866-2.175-.62-3.965-1.362-5.372-2.476l4.477-3.96c.767.37 1.535.742 2.43.99 1.663.495 3.198.742 4.86.742 2.559 0 4.35-.495 5.501-1.609 1.151-1.114 1.79-2.723 1.79-4.95v-.99c-1.918 1.98-4.476 2.97-7.93 2.97-2.302 0-4.349-.495-6.268-1.486-1.918-.99-3.453-2.351-4.477-4.084-1.15-1.733-1.663-3.837-1.663-6.065 0-2.352.512-4.332 1.663-6.065 1.152-1.733 2.559-3.094 4.477-4.084 1.919-.99 3.966-1.486 6.268-1.486 3.582 0 6.396 1.114 8.187 3.466v-3.094h6.907v-.124zM72.816 16.859c-1.69 0-3.119.484-4.159 1.331-1.17.848-1.82 2.058-2.08 3.632h12.477c-.26-1.453-.91-2.663-2.08-3.51-1.169-1.09-2.468-1.453-4.158-1.453zm13.126 7.02c0 .122 0 .727-.13 1.817H66.708c.39 1.452 1.17 2.663 2.47 3.51 1.299.847 2.858 1.21 4.808 1.21 1.3 0 2.469-.241 3.509-.605.39-.12.78-.363 1.17-.605l4.028 4.116c-2.21 1.695-5.198 2.542-8.967 2.542-2.86 0-5.329-.484-7.538-1.574-2.21-1.09-3.899-2.42-5.068-4.358-1.17-1.815-1.82-3.873-1.82-6.294 0-2.3.65-4.358 1.82-6.295 1.17-1.816 2.729-3.269 4.808-4.358 2.08-1.09 4.289-1.574 6.888-1.574 2.47 0 4.679.484 6.758 1.453 1.95.968 3.639 2.421 4.679 4.237 1.17 2.179 1.69 4.358 1.69 6.779zM13.516 16.764c-1.69 0-3.12.487-4.159 1.338-1.17.852-1.82 2.068-2.08 3.65h12.477c-.26-1.46-.91-2.676-2.08-3.528-1.169-1.095-2.469-1.46-4.158-1.46zm13.126 7.056c0 .122 0 .73-.13 1.825H7.408c.39 1.46 1.17 2.676 2.47 3.528 1.299.852 2.858 1.217 4.808 1.217 1.3 0 2.469-.244 3.509-.609.39-.121.78-.365 1.17-.608l4.028 4.136c-2.21 1.703-5.198 2.555-8.967 2.555-2.86 0-5.329-.487-7.538-1.582-2.21-1.094-3.899-2.433-5.069-4.38C.65 28.2 0 26.01 0 23.699c0-2.311.65-4.38 1.82-6.326 1.17-1.824 2.729-3.284 4.808-4.38 2.08-1.094 4.289-1.58 6.888-1.58 2.47 0 4.679.486 6.758 1.46 1.95.972 3.639 2.432 4.679 4.257 1.17 2.068 1.69 4.258 1.69 6.691z"/>
        <path fill="#FFF" d="M47.268 3.26h7.735v32.604h-7.735z"/>
        <path fill="#00AEEF" d="M33.434 26.162c.953.905 2.452 1.551 3.95 1.551 1.5 0 2.862-.646 3.952-1.55.954-.905 1.635-2.327 1.635-3.748 0-1.421-.681-2.843-1.635-3.747-.954-.905-2.452-1.551-3.951-1.551s-2.861.646-3.951 1.55c-.954.905-1.635 2.327-1.635 3.748 0 1.421.545 2.714 1.635 3.747"/>
        <path fill="#FFF" d="M124.125 6.986c.737.7 1.842 1.165 3.07 1.165 1.227 0 2.21-.466 3.069-1.165a4.027 4.027 0 0 0 1.228-2.91 4.027 4.027 0 0 0-1.228-2.912C129.527.466 128.422 0 127.194 0c-1.227 0-2.21.466-3.069 1.164a4.027 4.027 0 0 0-1.228 2.911c0 1.165.491 2.213 1.228 2.911"/>
    </g>
</svg>
