<svg xmlns="http://www.w3.org/2000/svg" width="134" height="50" viewBox="0 0 134 50">
    <g fill="#FFF" fill-rule="evenodd">
        <path d="M44.359 30.702H53.6l-4.649-13.158zM22.51 15.79h-6.8v9.649h6.8c2.89 0 5.214-2.15 5.214-4.825 0-2.674-2.323-4.825-5.213-4.825z"/>
        <path fill-rule="nonzero" d="M0 0v50h134V0H0zm22.194 29.45h-6.62v11.122h-3.893V12.924h10.513c4.784 0 8.678 3.707 8.678 8.262 0 4.556-3.838 8.263-8.678 8.263zm35.21 11.122l-2.28-6.25H43.61l-2.225 6.25h-4.06l10.123-27.648h3.894L61.52 40.572h-4.116zm30.316-8.686c0 1.536-.222 2.913-.723 4.025-.5 1.112-1.168 2.066-2.058 2.807-.89.742-1.947 1.271-3.17 1.642-1.224.37-2.615.53-4.172.53-1.558 0-3.06-.212-4.395-.583-1.39-.424-2.614-1.06-3.671-1.907l1.947-2.913a7.763 7.763 0 0 0 2.725 1.43c1.057.318 2.17.53 3.227.53 1.947 0 3.504-.477 4.616-1.483 1.113-.953 1.725-2.648 1.725-4.926v-2.701h-9.123v-3.231h9.123v-2.701c0-2.33-.556-3.973-1.725-4.926-1.168-1.007-2.67-1.483-4.616-1.483-1.113 0-2.17.159-3.227.53a8.165 8.165 0 0 0-2.725 1.43l-1.947-2.914a12.01 12.01 0 0 1 3.671-1.906 16.568 16.568 0 0 1 4.395-.583c1.557 0 2.948.159 4.171.53 1.224.37 2.337.9 3.171 1.642.89.741 1.557 1.642 2.058 2.807.5 1.165.723 2.49.723 4.025v10.329zm7.955-20.816h-3.616v3.549h-2.003v-3.55h-3.67V9.164h3.67V5.667h2.003v3.496h3.616v1.907zm22.083 29.555l-8.4-13.665-5.284 6.038v7.68h-3.894V12.924h3.894v14.3h.278l12.293-14.3h4.673l-9.345 10.91 10.346 16.738h-4.561v.053z"/>
    </g>
</svg>
